<?xml version="1.0" encoding="utf-8"?>
<!-- Generator: Adobe Illustrator 19.0.0, SVG Export Plug-In . SVG Version: 6.00 Build 0)  -->
<svg version="1.1" id="svg2198" xmlns:svg="http://www.w3.org/2000/svg"
	 xmlns="http://www.w3.org/2000/svg" xmlns:xlink="http://www.w3.org/1999/xlink" x="0px" y="0px" viewBox="-5 91 600 612"
	 style="enable-background:new -5 91 600 612;" xml:space="preserve">
<style type="text/css">
	.st0{fill:#E45C09;}
</style>
<g id="layer1" transform="translate(-277.14275,-3.3922404)">
	<path id="path8305" class="st0" d="M572.1,94.4l-55.8,61.9c19.5,28,26.8,61.7,26.8,78.6c-16.6-29.3-34.8-37.7-52.8-49.8L454.5,225
		c48.8,16.9,78.7,74.8,78.7,134.6c0,28.9-10,97.7-78.7,94.7V454c-50.7-6-98.4-64.9-102.7-129.3c-4.3-64.1,22.9-126.6,67.8-178.4
		h-0.2C337.5,195.1,280.6,282,273,383.3c-0.2,2.5-0.3,5-0.5,7.5c0,0.1,0,0.1,0,0.2c-0.1,2.5-0.2,5.1-0.3,7.6
		c-0.1,2.6-0.1,5.2-0.1,7.8c0,165.6,134.4,300,300,300s300-134.4,300-300c0-7.8-0.3-15.5-0.9-23.1
		c-7.6-101.3-64.5-188.3-146.5-237.1h-0.2c44.9,51.8,72.1,114.3,67.8,178.4C788.1,389,740.5,447.9,689.8,454v0.3
		c-68.8,3-78.7-65.8-78.7-94.7c0-59.8,29.9-117.6,78.7-134.6l-35.9-39.9c-18,12.1-36.2,20.6-52.8,49.8c0-16.9,7.3-50.6,26.8-78.6
		L572.1,94.4z"/>
</g>
</svg>
